<?xml version="1.0" encoding="UTF-8"?>
<svg id="Vrstva_1" data-name="Vrstva 1" xmlns="http://www.w3.org/2000/svg" viewBox="0 0 217.99 195.69">
  <defs>
    <style>
      .cls-1 {
        fill: #9d9d9c;
        stroke-width: 2px;
      }

      .cls-1, .cls-2 {
        stroke: #9d9d9c;
        stroke-miterlimit: 10;
      }

      .cls-2 {
        fill: none;
        stroke-width: 7px;
      }
    </style>
  </defs>
  <path class="cls-2" d="M198.63,23.66c17.66,2.5,15.81,16.01,15.81,16.01v132.18c0,1.24.51,7.14-5.27,6.18,0,0-51.25-13.6-82.78,6.08-10.73,6.69-12.48,8.08-17.27,8.08h-.24c-4.79,0-6.55-1.39-17.27-8.08-31.53-19.68-82.78-6.08-82.78-6.08-5.77.96-5.27-4.94-5.27-6.18V39.67s-1.86-13.52,15.81-16.01"/>
  <line class="cls-2" x1="109" y1="114.02" x2="109" y2="173.41"/>
  <line class="cls-2" x1="109" y1="12.38" x2="109" y2="66.45"/>
  <path class="cls-2" d="M198.85,145.83c-5.07-3.46-10.46-6.79-16.53-7.31-3.84-.33-7.78.49-11.54-.37-3.26-.74-6.1-2.68-9.1-4.16-3.54-1.74-7.58-2.86-11.44-2.05-3.86.81-7.41,3.95-7.72,7.89-.41,5.16,4.47,9.38,4.92,14.53.13,1.43-.1,2.81-.54,4.14,23.4-3.56,47.46,2.82,47.46,2.82,4.92.82,4.49-4.21,4.49-5.27v-10.23Z"/>
  <path class="cls-2" d="M191.27,38.17c-2.96,1.21-6.12,2.59-7.72,5.35-1.76,3.04-1.17,7.04-3.01,10.04-1.97,3.2-6,4.27-9.52,5.56-3.52,1.3-7.35,3.81-7.37,7.57-.02,3.74,3.75,6.31,7.26,7.61,3.51,1.3,7.52,2.28,9.62,5.38,1.15,1.69,1.55,3.8,2.67,5.51,2.16,3.28,6.38,4.35,10.14,5.49,1.89.57,3.88,1.36,5.51,2.49v-58.09c-2.53,1.03-5.06,2.07-7.58,3.1Z"/>
  <path class="cls-2" d="M73.93,9.8c3.47,3.19,7.91,5.1,11.64,7.97,1.69,1.3,3.32,2.96,3.64,5.07.36,2.4-1.05,4.65-2.27,6.75-3.7,6.31-6.06,14.73-1.73,20.63.66.9,1.54,1.75,2.65,1.92,3.06.46,4.39-4.05,7.24-5.26,2.05-.87,4.41.17,6.61-.16,4.14-.61,6.1-5.49,9.68-7.67,3.12-1.9,7.05-1.52,10.7-1.72,6.61-.36,13.09-2.92,18.16-7.17,2.98-2.5,5.69-5.68,9.46-6.65,2.62-.68,5.48-.15,7.83,1.2,1.73,1,3.5,2.49,5.45,2.07,2.7-.57,3.3-4.1,3.32-6.85.04-5.15.08-10.3.12-15.44-18.03-2.31-39.75-.89-57.44,7.9-11.97-5.94-25.83-8.4-39.1-8.73.75,2.31,2.24,4.5,4.03,6.15Z"/>
  <g>
    <path class="cls-2" d="M29.71,59.32c4.69.16,8.53-4.3,9.29-8.93.76-4.63-.79-9.31-2.47-13.69-.9-2.35-1.86-4.95-.99-7.31.55-1.5,1.84-2.71,3.38-3.16.76-.22,1.64-.31,2.14-.92.31-.37.41-.88.42-1.36.04-2.45-2.02-4.44-4.21-5.53-2.19-1.09-4.65-1.62-6.72-2.93-1.86-1.18-3.28-3.01-4.07-5.07-7.87,2.89-7.35,11.55-7.35,11.55v33.69c.87.15,1.73.4,2.52.73,2.65,1.11,5.17,2.83,8.05,2.93Z"/>
    <g>
      <path class="cls-2" d="M188.27,9.1c-5.81-2.07-13.41-3.64-21.84-4.62-.04,5.15-.08,10.3-.12,15.44-.02,2.76-.63,6.28-3.32,6.85-1.95.42-3.72-1.08-5.45-2.07-2.34-1.35-5.21-1.88-7.83-1.2-3.77.98-6.47,4.15-9.46,6.65-5.08,4.25-11.55,6.81-18.16,7.17-3.65.2-7.58-.19-10.7,1.72-3.58,2.18-5.53,7.06-9.68,7.67-2.2.32-4.57-.71-6.61.16-2.85,1.21-4.18,5.71-7.24,5.26-1.11-.17-1.99-1.01-2.65-1.92-4.33-5.9-1.97-14.31,1.73-20.63,1.22-2.09,2.63-4.35,2.27-6.75-.32-2.11-1.95-3.77-3.64-5.07-3.73-2.87-8.17-4.79-11.64-7.97-1.79-1.65-3.29-3.84-4.03-6.15-15.59-.65-30.32,2.15-40.18,5.45-1.2.4-2.28.85-3.23,1.32.78,2.06,2.2,3.88,4.07,5.07,2.07,1.31,4.53,1.84,6.72,2.93,2.19,1.09,4.25,3.09,4.21,5.53,0,.48-.11.99-.42,1.36-.5.61-1.38.69-2.14.92-1.54.45-2.83,1.66-3.38,3.16-.87,2.36.09,4.96.99,7.31,1.68,4.38,3.23,9.06,2.47,13.69-.76,4.63-4.6,9.09-9.29,8.93-2.87-.1-5.39-1.82-8.05-2.93-.79-.33-1.65-.59-2.52-.73v29.46c2.81.05,5.57.48,8.12,1.66,4.98,2.31,8.52,8.64,5.86,13.45-.99,1.78-2.67,3.13-3.46,5.01-1.32,3.15.33,6.88,2.88,9.14,2.56,2.26,5.86,3.45,8.96,4.87,3.1,1.42,6.24,3.28,7.84,6.3,1.96,3.7,1.4,8.74,4.51,11.53,2.31,2.07,5.87,2.11,8.33,4,2.76,2.12,3.43,6,3.29,9.48-.1,2.41-.48,4.85-.45,7.25,10.13.85,20.54,3.31,29.21,8.72,9.15,5.71,10.65,6.89,14.73,6.89h.07c4.08,0,5.58-1.18,14.73-6.89,6.94-4.33,14.99-6.77,23.13-8.01.44-1.34.66-2.72.54-4.14-.46-5.15-5.33-9.38-4.92-14.53.31-3.94,3.86-7.08,7.72-7.89,3.86-.81,7.9.31,11.44,2.05,3,1.47,5.84,3.41,9.1,4.16,3.76.86,7.7.04,11.54.37,6.08.53,11.46,3.86,16.53,7.31v-52.67c-1.63-1.13-3.62-1.92-5.51-2.49-3.76-1.14-7.98-2.2-10.14-5.49-1.12-1.71-1.52-3.82-2.67-5.51-2.1-3.09-6.11-4.08-9.62-5.38-3.51-1.3-7.29-3.86-7.26-7.61.02-3.75,3.85-6.27,7.37-7.57,3.52-1.3,7.56-2.37,9.52-5.56,1.84-2.99,1.25-7,3.01-10.04,1.6-2.76,4.76-4.15,7.72-5.35,2.53-1.03,5.06-2.07,7.58-3.1v-13.11s.45-8.94-10.58-12.87Z"/>
      <path class="cls-2" d="M65.47,150.55c.14-3.48-.53-7.36-3.29-9.48-2.46-1.89-6.02-1.93-8.33-4-3.12-2.79-2.55-7.84-4.51-11.53-1.6-3.02-4.73-4.88-7.84-6.3-3.1-1.42-6.41-2.6-8.96-4.87-2.56-2.26-4.21-6-2.88-9.14.79-1.88,2.48-3.23,3.46-5.01,2.66-4.8-.88-11.14-5.86-13.45-2.55-1.18-5.3-1.61-8.12-1.66v70.95c0,1.06-.43,6.09,4.49,5.27,0,0,20.08-5.32,41.39-3.53-.03-2.4.35-4.84.45-7.25Z"/>
    </g>
  </g>
  <path class="cls-1" d="M104.94,117.2c-11.93,0-23.87.04-35.8-.01-7.74-.04-13.44-5.76-13.25-13.15.14-5.58,4.32-10.65,9.84-11.87,1.08-.24,1.7-.66,2.16-1.82,1.89-4.69,5.34-7.55,10.43-8.38.67-.11,1.46-.56,1.85-1.1,4.55-6.23,10.6-9.26,18.34-8.62,1.41.12,2.16-.32,2.98-1.5,5.42-7.82,12.96-11.84,22.48-11.25,10.27.64,17.46,6.06,21.84,15.33.38.81,1.25,1.65,2.08,1.96,9.13,3.33,14.53,11.44,13.99,21.2-.48,8.69-7.21,16.56-16.11,18.63-1.95.45-4,.56-6.01.57-11.61.05-23.22.03-34.82.03ZM89.77,111.72c7.04,0,14.08.07,21.11-.02,5.72-.08,10.49-4.34,11.07-9.68.62-5.63-2.87-10.73-8.46-12.13-1.81-.45-2.64-1.44-3.28-3.13-2.07-5.43-6.04-8.75-11.87-9.4-6.26-.7-11.07,1.94-14.24,7.27-1.04,1.75-2.16,2.48-4.14,2.51-3.9.06-7.09,3.01-7.63,6.81-.37,2.61-.92,3.14-3.64,3.21-2.04.06-3.85.65-5.29,2.12-2.12,2.15-2.74,4.73-1.63,7.53,1.25,3.13,3.65,4.87,7.08,4.89,6.97.04,13.95.01,20.92,0ZM123.03,111.77c6.81,0,13.25.09,19.69-.03,3.6-.07,6.69-1.68,9.19-4.21,8.73-8.79,4.79-23.04-7.24-26.2-1.76-.46-2.76-1.23-3.35-3.02-3.3-10.06-13.72-15.74-23.94-13.03-5.08,1.34-9.05,4.27-11.89,8.94,4.07,2.11,6.97,5.12,8.82,9.07.57,1.21,1.28,1.89,2.55,2.37,6.19,2.37,10.2,8.41,10.24,15.02.03,4.15-1.43,7.73-4.08,11.11Z"/>
</svg>